<svg width="24" height="24" viewBox="0 0 24 24" fill="none" xmlns="http://www.w3.org/2000/svg">
<g clip-path="url(#clip0_2089_1175)">
<path d="M6.58212 13.2287L2.9917 22.0052L5.78427 21.2074L6.98107 23.601L10.5714 15.2233L6.58212 13.2287Z" fill="#D11E1E"/>
<path d="M15.3585 12.8297L11.3691 15.2234L14.9595 23.601L16.1563 21.2074L18.9489 22.0052L15.3585 12.8297Z" fill="#D11E1E"/>
<path d="M6.58194 13.2287L5.26147 16.4561L5.3293 16.476L6.18299 19.1249L8.90374 18.5425L9.07929 18.7021L10.5713 15.2233L6.58194 13.2287Z" fill="#F87171"/>
<path d="M11.3691 15.2233L12.8611 18.7021L13.0367 18.5425L15.7574 19.1249L16.6111 16.476L16.7667 16.4281L15.3585 12.8297L11.3691 15.2233Z" fill="#F87171"/>
<path d="M10.9704 0.462749L13.0369 2.32977L15.7576 1.74332L16.6113 4.39625L19.2603 5.24998L18.6779 7.97074L20.5448 10.0372L18.6779 12.1037L19.2603 14.8244L16.6113 15.6781L15.7576 18.3271L13.0369 17.7446L10.9704 19.6116L8.90394 17.7446L6.18318 18.3271L5.3295 15.6781L2.67657 14.8244L3.26302 12.1037L1.396 10.0372L3.26302 7.97074L2.67657 5.24998L5.3295 4.39625L6.18318 1.74332L8.90394 2.32977L10.9704 0.462749Z" fill="#FEF3C7"/>
<path d="M20.9437 3.65422C20.808 2.8356 20.1665 2.19411 19.3479 2.05846C20.1665 1.9228 20.808 1.28132 20.9437 0.4627C21.0793 1.28132 21.7208 1.9228 22.5394 2.05846C21.7208 2.19416 21.0793 2.83564 20.9437 3.65422Z" fill="#FDB62F"/>
<path d="M20.5446 10.0372L18.6776 7.97073L19.2601 5.24998L17.1976 4.58375C14.9596 10.7633 9.6418 14.2579 5.4729 16.121L6.18301 18.3271L8.90376 17.7446L10.9702 19.6116L13.0367 17.7446L15.7575 18.3271L16.6112 15.6781L19.2601 14.8244L18.6777 12.1036L20.5446 10.0372Z" fill="#FEF3C7"/>
<path d="M8.57672 9.23931C7.69547 9.23931 6.98096 8.5248 6.98096 7.64355C6.98096 6.7623 7.69547 6.04779 8.57672 6.04779C9.45796 6.04779 10.1725 6.7623 10.1725 7.64355C10.1725 8.5248 9.45796 9.23931 8.57672 9.23931ZM8.57672 6.84574C8.13591 6.84574 7.77886 7.20279 7.77886 7.6436C7.77886 8.08441 8.13591 8.44145 8.57672 8.44145C9.01753 8.44145 9.37457 8.08441 9.37457 7.6436C9.37457 7.20279 9.01753 6.84574 8.57672 6.84574Z" fill="white"/>
<path d="M13.7628 14.4255C12.8815 14.4255 12.167 13.711 12.167 12.8297C12.167 11.9485 12.8815 11.234 13.7628 11.234C14.644 11.234 15.3585 11.9485 15.3585 12.8297C15.3585 13.711 14.644 14.4255 13.7628 14.4255ZM13.7628 12.0319C13.3219 12.0319 12.9649 12.3889 12.9649 12.8297C12.9649 13.2705 13.3219 13.6276 13.7628 13.6276C14.2036 13.6276 14.5606 13.2705 14.5606 12.8297C14.5606 12.3889 14.2036 12.0319 13.7628 12.0319Z" fill="white"/>
<path d="M8.45844 13.1124L14.0437 7.52709L13.4795 6.96293L7.89428 12.5482L8.45844 13.1124Z" fill="white"/>
<path d="M8.57672 9.23931C9.45796 9.23931 10.1725 8.5248 10.1725 7.64355C10.1725 6.7623 9.45796 6.04779 8.57672 6.04779C7.69547 6.04779 6.98096 6.7623 6.98096 7.64355C6.98096 8.5248 7.69547 9.23931 8.57672 9.23931ZM8.57672 6.84574C9.01753 6.84574 9.37457 7.20279 9.37457 7.6436C9.37457 8.08441 9.01753 8.44145 8.57672 8.44145C8.13591 8.44145 7.77886 8.08441 7.77886 7.6436C7.77886 7.20279 8.13628 6.84574 8.57672 6.84574Z" fill="#212121"/>
<path d="M12.167 12.8297C12.167 13.711 12.8815 14.4255 13.7628 14.4255C14.644 14.4255 15.3585 13.711 15.3585 12.8297C15.3585 11.9485 14.644 11.234 13.7628 11.234C12.8815 11.234 12.167 11.9485 12.167 12.8297ZM14.5606 12.8297C14.5606 13.2705 14.2036 13.6276 13.7628 13.6276C13.3219 13.6276 12.9649 13.2705 12.9649 12.8297C12.9649 12.3889 13.3219 12.0319 13.7628 12.0319C14.2036 12.0319 14.5606 12.3889 14.5606 12.8297Z" fill="#212121"/>
<path d="M8.45844 13.1124L14.0437 7.52709L13.4795 6.96293L7.89428 12.5482L8.45844 13.1124Z" fill="#212121"/>
<path d="M1.10065 10.3045L2.83202 12.2194L2.28949 14.7406C2.23483 14.9473 2.35291 15.1599 2.55677 15.2234L4.98629 15.9813L2.62057 21.8576C2.57111 21.9945 2.60022 22.1473 2.69636 22.2566C2.79728 22.3667 2.95127 22.4114 3.09531 22.3723L5.5727 21.6662L6.62189 23.7646C6.68574 23.9062 6.82575 23.9979 6.98095 23.9999C7.13653 23.9951 7.27538 23.9002 7.33598 23.7566L9.47427 18.8138L10.703 19.9228C10.855 20.0601 11.0856 20.0601 11.2376 19.9228L12.3506 18.9175L14.5966 23.7845C14.6664 23.9198 14.8073 24.0031 14.9597 24C15.11 23.9995 15.2473 23.9146 15.3147 23.7805L16.3639 21.6821L18.8413 22.4042C18.9853 22.4433 19.1392 22.3986 19.2402 22.2885C19.3364 22.1792 19.3655 22.0264 19.316 21.8896L16.9543 15.9813L19.3838 15.2234C19.5785 15.1603 19.6938 14.9604 19.6511 14.7606L19.1086 12.2194L20.84 10.3045C20.9772 10.1525 20.9772 9.9219 20.84 9.76993L19.1086 7.85505L19.6511 5.33379C19.6938 5.13392 19.5785 4.93404 19.3838 4.87105L16.9304 4.07319L16.1565 1.62374C16.0934 1.42907 15.8935 1.31376 15.6937 1.35646L13.1525 1.89899L11.2376 0.167531C11.0855 0.0302819 10.855 0.0302819 10.703 0.167531L8.78812 1.8989L6.26686 1.35637C6.06699 1.31367 5.86712 1.42898 5.80412 1.62365L5.00621 4.07713L2.55279 4.87498C2.35811 4.93803 2.2428 5.1379 2.28551 5.33773L2.82803 7.85899L1.09667 9.77387C0.963402 9.92631 0.964995 10.1541 1.10065 10.3045ZM6.95302 22.6515L6.15516 21.0279C6.07336 20.8448 5.86833 20.751 5.67643 20.8084L3.68177 21.3829L5.3852 17.1222L5.81602 18.4507C5.87907 18.6454 6.07894 18.7607 6.27877 18.718L8.80003 18.1754L8.85988 18.2313L6.95302 22.6515ZM16.2641 20.8084C16.081 20.7574 15.8875 20.8423 15.8014 21.0119L14.9596 22.6794L12.9649 18.339L13.1445 18.1755L15.6657 18.718C15.8748 18.7774 16.093 18.6586 16.1564 18.4507L16.5554 17.1223L18.2628 21.3989L16.2641 20.8084ZM3.55806 8.23802C3.64464 8.14305 3.68012 8.0126 3.65383 7.88697L3.14317 5.51731L5.45302 4.77528C5.57391 4.73576 5.66884 4.64084 5.70835 4.51995L6.45038 2.2101L8.82004 2.72076C8.94571 2.7471 9.07616 2.71157 9.17109 2.62499L10.9703 1.00134L12.7695 2.62499C12.8644 2.71157 12.9949 2.74705 13.1205 2.72076L15.4902 2.2101L16.2322 4.51995C16.2717 4.64084 16.3667 4.73576 16.4875 4.77528L18.7974 5.51731L18.2867 7.88697C18.2604 8.01264 18.2959 8.14309 18.3825 8.23802L20.0062 10.0372L18.3825 11.8364C18.2959 11.9314 18.2604 12.0618 18.2867 12.1875L18.7974 14.5571L16.4875 15.2991C16.3667 15.3387 16.2717 15.4336 16.2322 15.5545L15.4902 17.8643L13.1205 17.3537C12.9949 17.3273 12.8644 17.3629 12.7695 17.4494L10.9703 19.0731L9.17109 17.4494C9.0981 17.3828 9.00271 17.3461 8.90381 17.3457H8.82004L6.45038 17.8564L5.70835 15.5465C5.66884 15.4256 5.57391 15.3307 5.45302 15.2912L3.14317 14.5491L3.65383 12.1795C3.68017 12.0538 3.64464 11.9234 3.55806 11.8284L1.93441 10.0372L3.55806 8.23802Z" fill="#212121"/>
<path d="M22.6032 1.65956C21.9581 1.54907 21.453 1.044 21.3425 0.398906C21.3425 0.178688 21.1638 -4.57764e-05 20.9436 -4.57764e-05C20.7233 -4.57764e-05 20.5446 0.178688 20.5446 0.398906C20.4341 1.044 19.9291 1.54903 19.284 1.65956C19.0637 1.65956 18.885 1.83829 18.885 2.05851C18.885 2.27873 19.0637 2.45746 19.284 2.45746C19.9291 2.56794 20.4341 3.07302 20.5446 3.71811C20.5446 3.93833 20.7233 4.11706 20.9436 4.11706C21.1638 4.11706 21.3425 3.93833 21.3425 3.71811C21.453 3.07302 21.9581 2.56799 22.6032 2.45746C22.8234 2.45746 23.0021 2.27873 23.0021 2.05851C23.0021 1.83829 22.8238 1.65956 22.6032 1.65956ZM20.9436 2.62897C20.7888 2.40637 20.5958 2.21329 20.3731 2.05851C20.5958 1.90373 20.7888 1.71065 20.9436 1.48804C21.0984 1.71065 21.2915 1.90373 21.5141 2.05851C21.2915 2.21329 21.0984 2.40637 20.9436 2.62897Z" fill="#212121"/>
</g>
<defs>
<clipPath id="clip0_2089_1175">
<rect width="24" height="24" fill="white"/>
</clipPath>
</defs>
</svg>
